# xmcd CD database file
#
# Track frame offsets:
#	150
#	18298
#	33280
#	47994
#	62185
#	75565
#	88858
#	99570
#	115175
#	130815
#	145246
#	165188
#	181974
#	196078
#	212592
#	232788
#	249306
#	269484
#	289283
#	306494
#
# Disc length: 4258 seconds
#
# Revision: 1
# Processed by: cddbd v1.5.2PL0 Copyright (c) Steve Scherf et al.
# Submitted via: CDex 1.51
#
DISCID=1210a014
DTITLE=Théo - Vol. 6 - Menina da Laje
DYEAR=2010
DGENRE=Country
TTITLE0=Erga a Cabeça
TTITLE1=Menina da Laje
TTITLE2=Forró na Praia
TTITLE3=Forró Paulista
TTITLE4=Tá todo Mundo Camarada
TTITLE5=Coração em Brasa
TTITLE6=Boizinho cheira cheira
TTITLE7=O grito da galera
TTITLE8=Pé no salão
TTITLE9=Abusada
TTITLE10=Quem ama
TTITLE11=Pensando nela
TTITLE12=Paranapanema
TTITLE13=Felicidade
TTITLE14=Te amo demais
TTITLE15=Pra que promessa
TTITLE16=Pai
TTITLE17=Rainha dio céu
TTITLE18=Homenagem à Jesus
TTITLE19=A estrela da emoção
EXTD=YEAR: 2010
EXTT0=
EXTT1=
EXTT2=
EXTT3=
EXTT4=
EXTT5=
EXTT6=
EXTT7=
EXTT8=
EXTT9=
EXTT10=
EXTT11=
EXTT12=
EXTT13=
EXTT14=
EXTT15=
EXTT16=
EXTT17=
EXTT18=
EXTT19=
PLAYORDER=
